<?xml version="1.0" encoding="iso-8859-1"?>
<!-- Generator: Adobe Illustrator 19.0.0, SVG Export Plug-In . SVG Version: 6.00 Build 0)  -->
<svg xmlns="http://www.w3.org/2000/svg" xmlns:xlink="http://www.w3.org/1999/xlink" version="1.1" id="Capa_1" x="0px" y="0px" viewBox="0 0 512 512" style="enable-background:new 0 0 512 512;" xml:space="preserve" width="512px" height="512px">
<g>
	<g>
		<path d="M390.679,118.463c-25.641-25.639-67.362-25.64-93.002,0.001c-12.421,12.421-19.262,28.935-19.262,46.501    s6.84,34.08,19.262,46.5c12.821,12.821,29.661,19.231,46.501,19.231s33.681-6.41,46.5-19.231    c12.42-12.421,19.262-28.935,19.262-46.501S403.101,130.884,390.679,118.463z M369.462,190.248    c-13.942,13.942-36.626,13.942-50.567,0c-6.753-6.752-10.473-15.732-10.473-25.283s3.72-18.53,10.473-25.283    c6.971-6.971,16.126-10.456,25.284-10.456c9.155,0,18.314,3.486,25.283,10.456c6.753,6.753,10.473,15.733,10.473,25.284    C379.935,174.517,376.215,183.495,369.462,190.248z" fill="#a6deca"/>
	</g>
</g>
<g>
	<g>
		<path d="M490.758,17.166C477.321,3.73,458.118-2.374,439.39,0.843l-20.18,3.465c-32.116,5.514-63.525,14.962-93.352,28.081    c-50.534,22.226-95.801,56.099-132.24,98.729L41.196,179.942c-17.869,5.724-31.173,20.027-35.591,38.262    c-4.418,18.235,0.865,37.042,14.133,50.309c6.041,6.041,13.541,10.592,21.687,13.162l34.043,10.737    c-4.788,14.15-1.427,30.405,9.546,41.377l96.219,96.22c7.825,7.824,18.069,11.794,28.36,11.794c5.564,0,11.141-1.163,16.356-3.505    l13.511,35.475c3.041,7.984,8.022,15.205,14.404,20.883c9.96,8.86,22.477,13.534,35.326,13.534c5.235,0,10.526-0.776,15.722-2.36    c17.946-5.474,31.449-19.591,36.121-37.763l39.989-155.552c37.983-34.367,69.002-75.923,90.297-121.176    c15.337-32.594,26.204-67.122,32.299-102.625l3.465-20.179C510.297,49.806,504.195,30.603,490.758,17.166z M50.449,253.059    c-3.566-1.125-6.849-3.118-9.495-5.762c-5.895-5.896-8.151-13.924-6.187-22.026c1.963-8.103,7.643-14.209,15.582-16.751    l111.169-35.611l-69.095,93.389L50.449,253.059z M216.004,409.466c-4.038,3.306-9.864,3.016-13.555-0.674l-96.219-96.219    c-3.512-3.513-3.933-9.172-0.979-13.165l4.872-6.585l26.482-35.371l119.326,119.326L216.004,409.466z M311.969,460.597    c-2.075,8.075-7.84,14.101-15.814,16.533c-7.975,2.433-16.121,0.649-22.35-4.892c-2.795-2.486-4.975-5.647-6.306-9.143    l-15.687-41.191l89.533-75.572L311.969,460.597z M477.509,63.457l-3.465,20.179c-5.638,32.84-15.69,64.777-29.877,94.926    c-22.086,46.936-55.569,89.6-96.827,123.379l-68.076,55.734l-124.489-124.49l62.988-84.129    c33.28-38.479,74.387-69.063,120.177-89.202c27.589-12.133,56.64-20.873,86.348-25.973l20.18-3.465    c1.667-0.287,3.332-0.427,4.977-0.427c7.507,0,14.636,2.936,20.096,8.395C476.197,45.04,479.102,54.179,477.509,63.457z" fill="#a6deca"/>
	</g>
</g>
<g>
	<g>
		<path d="M172.269,464.771c-2.92-10.222-11.599-17.518-22.113-18.59l-23.293-2.372c-27.253-2.776-49.075-24.568-51.888-51.817    l-2.42-23.452c-1.085-10.506-8.388-19.177-18.606-22.087c-10.004-2.852-20.539,0.584-26.858,8.76    c-0.417,0.542-0.82,1.107-1.208,1.698c-12.801,19.523-19.243,45.66-19.151,77.685c0.072,24.885,4.206,46.758,5.979,55.009    c1.765,8.207,8.209,14.65,16.417,16.415c8.249,1.773,30.121,5.907,55.007,5.979C84.361,512,84.584,512,84.81,512    c31.715,0,57.624-6.442,77.008-19.151c0.583-0.382,1.159-0.792,1.711-1.219C171.697,485.319,175.128,474.775,172.269,464.771z     M40.947,477.782c-3.165-17.085-9.031-59.541,3.302-91.206l0.877,8.499c2.074,20.089,11.087,39.013,25.378,53.284    c14.291,14.271,33.227,23.257,53.319,25.303l8.263,0.841C100.417,486.801,58.014,480.943,40.947,477.782z" fill="#a6deca"/>
	</g>
</g>
<g>
</g>
<g>
</g>
<g>
</g>
<g>
</g>
<g>
</g>
<g>
</g>
<g>
</g>
<g>
</g>
<g>
</g>
<g>
</g>
<g>
</g>
<g>
</g>
<g>
</g>
<g>
</g>
<g>
</g>
</svg>
